<svg id="Layer_1" data-name="Layer 1" xmlns="http://www.w3.org/2000/svg" viewBox="0 0 87.75 90"><defs><style>.cls-1{fill:#ed1914;}.cls-2{fill:#330e0e;}.cls-3{fill:#e24340;}.cls-4{fill:#af1512;}.cls-5{fill:#7a0808;}</style></defs><title>F. Red knight&amp;apos;s helmet</title><rect class="cls-1" x="42.68" y="4.72" width="2.38" height="2.38"/><polygon class="cls-1" points="56.98 9.48 56.98 7.1 54.59 7.1 54.59 4.72 52.21 4.72 52.21 2.34 49.83 2.34 47.45 2.34 45.07 2.34 45.07 4.72 47.45 4.72 47.45 7.1 49.83 7.1 49.83 9.48 52.21 9.48 52.21 11.86 54.59 11.86 54.59 9.48 56.98 9.48"/><rect class="cls-1" x="54.59" y="11.86" width="2.38" height="2.38"/><rect class="cls-1" x="56.98" y="9.48" width="2.38" height="2.38"/><rect class="cls-1" x="59.36" y="11.86" width="2.38" height="2.38"/><rect class="cls-1" x="61.74" y="9.48" width="2.38" height="2.38"/><polygon class="cls-2" points="52.21 26.16 52.21 28.54 54.59 28.54 54.59 26.16 54.59 23.77 52.21 23.77 52.21 26.16"/><polygon class="cls-2" points="30.77 26.16 30.77 28.54 33.16 28.54 33.16 26.16 33.16 23.77 30.77 23.77 30.77 26.16"/><rect class="cls-2" x="26.01" y="14.25" width="2.38" height="2.38"/><rect class="cls-2" x="56.98" y="14.25" width="2.38" height="2.38"/><polygon class="cls-3" points="40.3 9.48 40.3 11.86 40.3 14.25 37.92 14.25 37.92 16.63 35.54 16.63 35.54 19.01 33.16 19.01 33.16 21.39 35.54 21.39 35.54 23.77 35.54 26.16 37.92 26.16 37.92 28.54 37.92 30.92 40.3 30.92 40.3 33.3 42.68 33.3 42.68 30.92 42.68 28.54 40.3 28.54 40.3 26.16 40.3 23.77 42.68 23.77 42.68 21.39 42.68 19.01 42.68 16.63 42.68 14.25 42.68 11.86 42.68 9.48 40.3 9.48"/><rect class="cls-4" x="35.54" y="40.45" width="2.38" height="2.38"/><polygon class="cls-4" points="33.16 40.45 35.54 40.45 35.54 38.07 35.54 35.69 33.16 35.69 33.16 38.07 33.16 40.45"/><rect class="cls-4" x="35.54" y="26.16" width="2.38" height="2.38"/><rect class="cls-4" x="52.21" y="33.3" width="2.38" height="2.38"/><polygon class="cls-4" points="54.59 23.77 54.59 26.16 54.59 28.54 54.59 30.92 54.59 33.3 56.98 33.3 56.98 30.92 56.98 28.54 59.36 28.54 59.36 26.16 59.36 23.77 56.98 23.77 54.59 23.77"/><rect class="cls-4" x="30.77" y="33.3" width="2.38" height="2.38"/><polygon class="cls-4" points="26.01 23.77 26.01 26.16 26.01 28.54 28.39 28.54 28.39 30.92 28.39 33.3 30.77 33.3 30.77 30.92 30.77 28.54 30.77 26.16 30.77 23.77 28.39 23.77 26.01 23.77"/><rect class="cls-4" x="23.63" y="21.39" width="2.38" height="2.38"/><polygon class="cls-4" points="37.92 11.86 35.54 11.86 35.54 14.25 33.16 14.25 33.16 16.63 30.77 16.63 30.77 14.25 28.39 14.25 28.39 16.63 26.01 16.63 23.63 16.63 23.63 19.01 26.01 19.01 26.01 21.39 28.39 21.39 30.77 21.39 30.77 23.77 33.16 23.77 33.16 26.16 35.54 26.16 35.54 23.77 35.54 21.39 33.16 21.39 33.16 19.01 35.54 19.01 35.54 16.63 37.92 16.63 37.92 14.25 40.3 14.25 40.3 11.86 40.3 9.48 37.92 9.48 37.92 11.86"/><rect class="cls-4" x="59.36" y="21.39" width="2.38" height="2.38"/><polygon class="cls-4" points="61.74 19.01 61.74 16.63 59.36 16.63 56.98 16.63 56.98 14.25 54.59 14.25 54.59 16.63 52.21 16.63 52.21 14.25 49.83 14.25 49.83 11.86 47.45 11.86 47.45 9.48 45.07 9.48 45.07 7.1 42.68 7.1 40.3 7.1 40.3 9.48 42.68 9.48 42.68 11.86 42.68 14.25 42.68 16.63 42.68 19.01 42.68 21.39 42.68 23.77 40.3 23.77 40.3 26.16 40.3 28.54 42.68 28.54 42.68 30.92 42.68 33.3 40.3 33.3 40.3 35.69 42.68 35.69 45.07 35.69 45.07 33.3 45.07 30.92 47.45 30.92 47.45 28.54 49.83 28.54 49.83 26.16 52.21 26.16 52.21 23.77 54.59 23.77 54.59 21.39 56.98 21.39 59.36 21.39 59.36 19.01 61.74 19.01"/><polygon class="cls-4" points="49.83 38.07 49.83 40.45 52.21 40.45 52.21 38.07 52.21 35.69 49.83 35.69 49.83 38.07"/><rect class="cls-4" x="47.45" y="40.45" width="2.38" height="2.38"/><polygon class="cls-5" points="37.92 42.83 37.92 45.21 40.3 45.21 40.3 42.83 40.3 40.45 37.92 40.45 37.92 42.83"/><polygon class="cls-5" points="37.92 35.69 37.92 33.3 35.54 33.3 35.54 30.92 33.16 30.92 33.16 28.54 30.77 28.54 30.77 30.92 30.77 33.3 33.16 33.3 33.16 35.69 35.54 35.69 35.54 38.07 35.54 40.45 37.92 40.45 37.92 38.07 37.92 35.69"/><polygon class="cls-5" points="52.21 30.92 49.83 30.92 49.83 33.3 47.45 33.3 47.45 35.69 47.45 38.07 47.45 40.45 49.83 40.45 49.83 38.07 49.83 35.69 52.21 35.69 52.21 33.3 54.59 33.3 54.59 30.92 54.59 28.54 52.21 28.54 52.21 30.92"/><rect class="cls-5" x="26.01" y="11.86" width="2.38" height="2.38"/><rect class="cls-5" x="28.39" y="9.48" width="2.38" height="2.38"/><rect class="cls-5" x="28.39" y="21.39" width="2.38" height="2.38"/><rect class="cls-5" x="56.98" y="11.86" width="2.38" height="2.38"/><rect class="cls-5" x="54.59" y="9.48" width="2.38" height="2.38"/><rect class="cls-5" x="54.59" y="21.39" width="2.38" height="2.38"/><polygon class="cls-5" points="45.07 42.83 45.07 45.21 47.45 45.21 47.45 42.83 47.45 40.45 45.07 40.45 45.07 42.83"/></svg>