<svg id="Layer_1" data-name="Layer 1" xmlns="http://www.w3.org/2000/svg" viewBox="0 0 90 90"><defs><style>.cls-1{fill:#278927;}.cls-2{fill:#6d4c24;}.cls-3{fill:#4c3517;}.cls-4{fill:#190d06;}.cls-5{fill:#2d1607;}.cls-6{fill:#191e19;}.cls-7{fill:#0f1e10;}.cls-8{fill:#154419;}.cls-9{fill:#f4f4f4;}.cls-10{fill:#d6d6d6;}.cls-11{fill:#a0a0a0;}.cls-12{fill:#727272;}.cls-13{fill:#0d0f0d;}.cls-14{fill:#8e5f2d;}</style></defs><title>Rasaka</title><rect class="cls-1" x="11.25" y="31.48" width="2.25" height="2.25"/><rect class="cls-2" x="38.25" y="56.23" width="2.25" height="2.25"/><rect class="cls-2" x="36" y="53.98" width="2.25" height="2.25"/><rect class="cls-3" x="33.75" y="51.73" width="2.25" height="2.25"/><rect class="cls-3" x="31.5" y="49.48" width="2.25" height="2.25"/><rect class="cls-4" x="31.5" y="51.73" width="2.25" height="2.25"/><rect class="cls-4" x="33.75" y="53.98" width="2.25" height="2.25"/><rect class="cls-5" x="36" y="56.23" width="2.25" height="2.25"/><rect class="cls-5" x="38.25" y="58.48" width="2.25" height="2.25"/><rect class="cls-5" x="40.5" y="60.73" width="2.25" height="2.25"/><rect class="cls-5" x="42.75" y="58.48" width="2.25" height="2.25"/><rect class="cls-5" x="40.5" y="56.23" width="2.25" height="2.25"/><rect class="cls-5" x="38.25" y="53.98" width="2.25" height="2.25"/><rect class="cls-4" x="36" y="51.73" width="2.25" height="2.25"/><rect class="cls-4" x="33.75" y="49.48" width="2.25" height="2.25"/><rect class="cls-4" x="31.5" y="47.23" width="2.25" height="2.25"/><rect class="cls-5" x="29.25" y="44.98" width="2.25" height="2.25"/><rect class="cls-6" x="29.25" y="47.23" width="2.25" height="2.25"/><rect class="cls-6" x="27" y="44.98" width="2.25" height="2.25"/><rect class="cls-7" x="24.75" y="42.73" width="2.25" height="2.25"/><rect class="cls-7" x="24.75" y="44.98" width="2.25" height="2.25"/><rect class="cls-7" x="22.5" y="44.98" width="2.25" height="2.25"/><rect class="cls-7" x="27" y="42.73" width="2.25" height="2.25"/><rect class="cls-7" x="22.5" y="40.48" width="2.25" height="2.25"/><rect class="cls-7" x="22.5" y="42.73" width="2.25" height="2.25"/><rect class="cls-7" x="20.25" y="40.48" width="2.25" height="2.25"/><rect class="cls-7" x="20.25" y="42.73" width="2.25" height="2.25"/><rect class="cls-7" x="24.75" y="40.48" width="2.25" height="2.25"/><rect class="cls-8" x="15.75" y="38.23" width="2.25" height="2.25"/><rect class="cls-8" x="18" y="38.23" width="2.25" height="2.25"/><rect class="cls-7" x="18" y="40.48" width="2.25" height="2.25"/><rect class="cls-7" x="20.25" y="38.23" width="2.25" height="2.25"/><rect class="cls-8" x="15.75" y="35.98" width="2.25" height="2.25"/><rect class="cls-7" x="18" y="35.98" width="2.25" height="2.25"/><rect class="cls-8" x="20.25" y="35.98" width="2.25" height="2.25"/><rect class="cls-7" x="22.5" y="35.98" width="2.25" height="2.25"/><rect class="cls-8" x="15.75" y="33.73" width="2.25" height="2.25"/><rect class="cls-8" x="18" y="33.73" width="2.25" height="2.25"/><rect class="cls-8" x="13.5" y="31.48" width="2.25" height="2.25"/><rect class="cls-8" x="13.5" y="33.73" width="2.25" height="2.25"/><rect class="cls-8" x="15.75" y="31.48" width="2.25" height="2.25"/><rect class="cls-1" x="13.5" y="29.23" width="2.25" height="2.25"/><rect class="cls-1" x="13.5" y="31.48" width="2.25" height="2.25"/><rect class="cls-8" x="15.75" y="33.73" width="2.25" height="2.25"/><rect class="cls-9" x="11.25" y="24.73" width="2.25" height="2.25"/><rect class="cls-9" x="9" y="22.48" width="2.25" height="2.25"/><rect class="cls-9" x="9" y="24.73" width="2.25" height="2.25"/><rect class="cls-1" x="11.25" y="29.23" width="2.25" height="2.25"/><rect class="cls-9" x="9" y="20.24" width="2.25" height="2.25"/><rect class="cls-9" x="11.25" y="17.98" width="2.25" height="2.25"/><rect class="cls-9" x="13.5" y="15.73" width="2.25" height="2.25"/><rect class="cls-10" x="13.5" y="26.98" width="2.25" height="2.25"/><rect class="cls-10" x="15.75" y="29.23" width="2.25" height="2.25"/><rect class="cls-10" x="18" y="31.48" width="2.25" height="2.25"/><rect class="cls-10" x="20.25" y="33.73" width="2.25" height="2.25"/><rect class="cls-10" x="22.5" y="33.73" width="2.25" height="2.25"/><rect class="cls-11" x="24.75" y="35.98" width="2.25" height="2.25"/><rect class="cls-11" x="24.75" y="38.23" width="2.25" height="2.25"/><rect class="cls-11" x="27" y="40.48" width="2.25" height="2.25"/><rect class="cls-12" x="29.25" y="42.73" width="2.25" height="2.25"/><rect class="cls-10" x="9" y="29.23" width="2.25" height="2.25"/><rect class="cls-10" x="11.25" y="31.48" width="2.25" height="2.25"/><rect class="cls-10" x="11.25" y="33.73" width="2.25" height="2.25"/><rect class="cls-10" x="11.25" y="35.98" width="2.25" height="2.25"/><rect class="cls-10" x="13.5" y="35.98" width="2.25" height="2.25"/><rect class="cls-11" x="15.75" y="40.48" width="2.25" height="2.25"/><rect class="cls-10" x="13.5" y="38.23" width="2.25" height="2.25"/><rect class="cls-11" x="18" y="40.48" width="2.25" height="2.25"/><rect class="cls-11" x="20.25" y="44.98" width="2.25" height="2.25"/><rect class="cls-11" x="20.25" y="42.73" width="2.25" height="2.25"/><rect class="cls-12" x="20.25" y="47.23" width="2.25" height="2.25"/><rect class="cls-6" x="22.5" y="47.23" width="2.25" height="2.25"/><rect class="cls-6" x="22.5" y="49.48" width="2.25" height="2.25"/><rect x="24.75" y="51.73" width="2.25" height="2.25"/><rect x="22.5" y="51.73" width="2.25" height="2.25"/><rect x="24.75" y="53.98" width="2.25" height="2.25"/><rect x="22.5" y="53.98" width="2.25" height="2.25"/><rect x="24.75" y="56.23" width="2.25" height="2.25"/><rect x="27" y="58.48" width="2.25" height="2.25"/><rect x="29.25" y="60.73" width="2.25" height="2.25"/><rect x="27" y="56.23" width="2.25" height="2.25"/><rect class="cls-13" x="24.75" y="49.48" width="2.25" height="2.25"/><rect class="cls-13" x="24.75" y="47.23" width="2.25" height="2.25"/><rect class="cls-13" x="22.5" y="44.98" width="2.25" height="2.25"/><rect class="cls-13" x="27" y="49.48" width="2.25" height="2.25"/><rect class="cls-13" x="27" y="44.98" width="2.25" height="2.25"/><rect class="cls-13" x="27" y="42.73" width="2.25" height="2.25"/><rect class="cls-13" x="24.75" y="42.73" width="2.25" height="2.25"/><rect class="cls-13" x="24.75" y="40.48" width="2.25" height="2.25"/><rect class="cls-13" x="22.5" y="42.73" width="2.25" height="2.25"/><rect class="cls-13" x="22.5" y="40.48" width="2.25" height="2.25"/><rect class="cls-9" x="9" y="26.98" width="2.25" height="2.25"/><rect class="cls-9" x="9" y="24.73" width="2.25" height="2.25"/><rect class="cls-1" x="11.25" y="26.98" width="2.25" height="2.25"/><rect class="cls-2" x="40.5" y="58.48" width="2.25" height="2.25"/><rect class="cls-10" x="42.75" y="60.73" width="2.25" height="2.25"/><rect class="cls-7" x="22.5" y="38.23" width="2.25" height="2.25"/><rect class="cls-2" x="24.75" y="44.98" width="2.25" height="2.25"/><rect class="cls-2" x="33.75" y="47.23" width="2.25" height="2.25"/><rect class="cls-14" x="33.75" y="42.73" width="2.25" height="2.25"/><rect class="cls-14" x="36" y="42.73" width="2.25" height="2.25"/><rect class="cls-2" x="31.5" y="44.98" width="2.25" height="2.25"/><rect class="cls-2" x="31.5" y="42.73" width="2.25" height="2.25"/><rect class="cls-2" x="29.25" y="44.98" width="2.25" height="2.25"/><rect class="cls-3" x="27" y="47.23" width="2.25" height="2.25"/><rect class="cls-3" x="29.25" y="47.23" width="2.25" height="2.25"/><rect class="cls-4" x="29.25" y="49.48" width="2.25" height="2.25"/><rect class="cls-12" x="22.5" y="47.23" width="2.25" height="2.25"/><rect class="cls-12" x="22.5" y="49.48" width="2.25" height="2.25"/></svg>