<svg xmlns="http://www.w3.org/2000/svg" viewBox="0 0 45 45"><defs><style>.cls-1{fill:#ffe780;}.cls-2{fill:#ffb531;}.cls-3{fill:#ffca55;}</style></defs><title>Asset 2</title><g id="Layer_2" data-name="Layer 2"><g id="Layer_2-2" data-name="Layer 2"><rect class="cls-1" x="15" y="6" width="3" height="3"/><rect class="cls-2" x="15" y="12" width="3" height="3"/><rect class="cls-2" x="15" y="9" width="3" height="3"/><rect class="cls-2" x="15" y="3" width="3" height="3"/><rect class="cls-1" x="12" y="3" width="3" height="3"/><rect class="cls-1" x="18" y="3" width="3" height="3"/><rect class="cls-1" x="18" y="9" width="3" height="3"/><rect class="cls-2" x="15" width="3" height="3"/><rect class="cls-2" x="15" y="6" width="3" height="3" transform="translate(24 -9) rotate(90)"/><rect class="cls-2" x="9" y="6" width="3" height="3" transform="translate(18 -3) rotate(90)"/><rect class="cls-2" x="12" y="6" width="3" height="3" transform="translate(21 -6) rotate(90)"/><rect class="cls-1" x="6" width="3" height="3" transform="translate(9 -6) rotate(90)"/><rect class="cls-1" x="9" y="12" width="3" height="3" transform="translate(24 3) rotate(90)"/><rect class="cls-1" x="21" y="12" width="3" height="3" transform="translate(36 -9) rotate(90)"/><rect class="cls-1" x="24" y="15" width="3" height="3" transform="translate(42 -9) rotate(90)"/><rect class="cls-2" x="18" y="18" width="3" height="3" transform="translate(39 0) rotate(90)"/><rect class="cls-3" x="30" y="6" width="3" height="3" transform="translate(39 -24) rotate(90)"/><rect class="cls-3" x="33" y="3" width="3" height="3" transform="translate(39 -30) rotate(90)"/><rect class="cls-1" x="39" width="3" height="3" transform="translate(42 -39) rotate(90)"/><rect class="cls-1" x="42" y="3" width="3" height="3" transform="translate(48 -39) rotate(90)"/><rect class="cls-1" x="39" y="9" width="3" height="3" transform="translate(51 -30) rotate(90)"/><rect class="cls-1" x="33" y="15" width="3" height="3" transform="translate(51 -18) rotate(90)"/><rect class="cls-1" x="24" y="24" width="3" height="3" transform="translate(51 0) rotate(90)"/><rect class="cls-1" x="21" y="27" width="3" height="3" transform="translate(51 6) rotate(90)"/><rect class="cls-2" x="21" y="30" width="3" height="3" transform="translate(54 9) rotate(90)"/><rect class="cls-1" x="15" y="24" width="3" height="3" transform="translate(42 9) rotate(90)"/><rect class="cls-1" x="15" y="33" width="3" height="3" transform="translate(51 18) rotate(90)"/><rect class="cls-1" x="30" y="21" width="3" height="3" transform="translate(54 -9) rotate(90)"/><rect class="cls-1" x="30" y="18" width="3" height="3" transform="translate(51 -12) rotate(90)"/><rect class="cls-1" x="36" y="30" width="3" height="3" transform="translate(69 -6) rotate(90)"/><rect class="cls-1" x="39" y="36" width="3" height="3" transform="translate(78 -3) rotate(90)"/><rect class="cls-3" x="36" y="42" width="3" height="3" transform="translate(81 6) rotate(90)"/><rect class="cls-3" x="30" y="39" width="3" height="3" transform="translate(72 9) rotate(90)"/><rect class="cls-3" x="27" y="36" width="3" height="3" transform="translate(66 9) rotate(90)"/><rect class="cls-1" x="12" y="9" width="3" height="3" transform="translate(24 -3) rotate(90)"/><rect class="cls-2" x="18" y="6" width="3" height="3" transform="translate(27 -12) rotate(90)"/><rect class="cls-2" x="21" y="6" width="3" height="3" transform="translate(30 -15) rotate(90)"/><rect class="cls-1" x="6" y="36" width="3" height="3"/><rect class="cls-1" x="6" y="42" width="3" height="3"/><rect class="cls-1" x="6" y="39" width="3" height="3"/><rect class="cls-1" x="6" y="33" width="3" height="3"/><rect class="cls-3" x="3" y="33" width="3" height="3"/><rect class="cls-3" x="9" y="33" width="3" height="3"/><rect class="cls-3" x="9" y="39" width="3" height="3"/><rect class="cls-1" x="6" y="30" width="3" height="3"/><rect class="cls-1" x="6" y="36" width="3" height="3" transform="translate(45 30) rotate(90)"/><rect class="cls-1" y="36" width="3" height="3" transform="translate(39 36) rotate(90)"/><rect class="cls-1" x="3" y="36" width="3" height="3" transform="translate(42 33) rotate(90)"/><rect class="cls-3" x="3" y="39" width="3" height="3" transform="translate(45 36) rotate(90)"/><rect class="cls-1" x="9" y="36" width="3" height="3" transform="translate(48 27) rotate(90)"/><rect class="cls-1" x="12" y="36" width="3" height="3" transform="translate(51 24) rotate(90)"/></g></g></svg>