<svg xmlns="http://www.w3.org/2000/svg" viewBox="0 0 87.75 90"><defs><style>.cls-1{fill:#af1512;}.cls-2{fill:#ce1515;}.cls-3{fill:#af1010;}.cls-4{fill:#ed1914;}.cls-5{fill:#330e0e;}.cls-6{fill:#7a0808;}.cls-7{fill:#e24340;}</style></defs><title>Am_Red knight&amp;apos;s armor</title><g id="Layer_4" data-name="Layer 4"><polygon class="cls-1" points="49.83 48.7 49.83 53.47 47.45 53.47 47.45 51.09 45.07 51.09 45.07 48.7 49.83 48.7"/><rect class="cls-1" x="35.54" y="55.85" width="4.76" height="2.38"/><rect class="cls-1" x="42.68" y="58.23" width="2.38" height="2.38"/><rect class="cls-1" x="42.68" y="53.47" width="2.38" height="2.38"/><rect class="cls-1" x="42.68" y="51.09" width="2.38" height="2.38"/><rect class="cls-1" x="42.68" y="48.7" width="2.38" height="2.38"/><rect class="cls-1" x="42.68" y="46.32" width="2.38" height="2.38"/><rect class="cls-1" x="42.68" y="63" width="2.38" height="2.38"/><rect class="cls-1" x="45.07" y="60.61" width="2.38" height="2.38"/><polygon class="cls-1" points="40.3 48.7 40.3 51.09 37.92 51.09 37.92 53.47 35.54 53.47 35.54 48.7 40.3 48.7"/><rect class="cls-2" x="54.6" y="63" width="2.38" height="2.38"/><rect class="cls-3" x="52.21" y="63" width="2.38" height="2.38"/><polygon class="cls-1" points="35.54 53.47 35.54 55.85 30.77 55.85 30.77 51.09 33.16 51.09 33.16 53.47 35.54 53.47"/><rect class="cls-1" x="35.54" y="60.61" width="2.38" height="4.76"/><polygon class="cls-1" points="54.59 51.09 54.59 55.85 49.83 55.85 49.83 53.47 52.21 53.47 52.21 51.09 54.59 51.09"/><rect class="cls-1" x="47.45" y="60.61" width="2.38" height="4.76"/><polygon class="cls-1" points="35.54 43.94 35.54 48.7 26.01 48.7 26.01 46.32 23.63 46.32 23.63 43.94 21.25 43.94 21.25 39.17 23.63 39.17 23.63 41.56 33.16 41.56 33.16 43.94 35.54 43.94"/><polygon class="cls-4" points="59.36 60.61 56.98 60.61 56.98 55.85 54.59 55.85 54.59 58.23 52.21 58.23 52.21 63 56.98 63 56.98 65.38 59.36 65.38 59.36 63 61.74 63 61.74 60.61 59.36 60.61"/><rect class="cls-4" x="33.16" y="39.17" width="2.38" height="2.38"/><rect class="cls-4" x="35.54" y="41.56" width="2.38" height="2.38"/><rect class="cls-4" x="30.77" y="36.79" width="2.38" height="2.38"/><rect class="cls-4" x="47.45" y="43.94" width="2.38" height="2.38"/><rect class="cls-4" x="49.83" y="41.56" width="2.38" height="2.38"/><rect class="cls-4" x="52.21" y="39.17" width="2.38" height="2.38"/><polygon class="cls-1" points="64.12 39.17 64.12 43.94 61.74 43.94 61.74 46.32 59.36 46.32 59.36 48.7 49.83 48.7 49.83 43.94 52.21 43.94 52.21 41.56 61.74 41.56 61.74 39.17 64.12 39.17"/><rect class="cls-5" x="21.25" y="36.79" width="2.38" height="2.38"/><rect class="cls-5" x="18.86" y="34.41" width="2.38" height="2.38"/><polygon class="cls-5" points="21.25 39.17 18.86 39.17 18.86 41.56 18.86 43.94 21.25 43.94 21.25 41.56 21.25 39.17"/><rect class="cls-5" x="21.25" y="43.94" width="2.38" height="2.38"/><rect class="cls-5" x="23.63" y="46.32" width="2.38" height="2.38"/><polygon class="cls-5" points="30.77 51.09 33.16 51.09 33.16 53.47 35.54 53.47 35.54 51.09 35.54 48.7 33.16 48.7 30.77 48.7 28.39 48.7 26.01 48.7 26.01 51.09 28.39 51.09 28.39 53.47 28.39 55.85 30.77 55.85 30.77 53.47 30.77 51.09"/><polygon class="cls-5" points="54.59 48.7 52.21 48.7 49.83 48.7 49.83 51.09 49.83 53.47 52.21 53.47 52.21 51.09 54.59 51.09 54.59 53.47 54.59 55.85 56.98 55.85 56.98 53.47 56.98 51.09 59.36 51.09 59.36 48.7 56.98 48.7 54.59 48.7"/><polygon class="cls-5" points="37.92 55.85 40.3 55.85 40.3 53.47 37.92 53.47 35.54 53.47 35.54 55.85 37.92 55.85"/><polygon class="cls-5" points="42.69 58.23 45.07 58.23 45.07 55.85 42.69 55.85 40.3 55.85 40.3 58.23 42.69 58.23"/><polygon class="cls-5" points="49.83 55.85 49.83 53.47 47.45 53.47 45.07 53.47 45.07 55.85 47.45 55.85 49.83 55.85"/><polygon class="cls-5" points="49.83 55.85 49.83 58.23 47.45 58.23 45.07 58.23 45.07 60.61 42.69 60.61 40.3 60.61 40.3 58.23 37.92 58.23 35.54 58.23 35.54 55.85 33.16 55.85 30.77 55.85 30.77 58.23 33.16 58.23 33.16 60.61 33.16 63 33.16 65.38 33.16 67.76 35.54 67.76 37.92 67.76 37.92 65.38 35.54 65.38 35.54 63 35.54 60.61 37.92 60.61 37.92 63 40.3 63 42.69 63 45.07 63 47.45 63 47.45 60.61 49.83 60.61 49.83 63 49.83 65.38 47.45 65.38 47.45 67.76 49.83 67.76 52.21 67.76 52.21 65.38 52.21 63 52.21 60.61 52.21 58.23 54.59 58.23 54.59 55.85 52.21 55.85 49.83 55.85"/><polygon class="cls-5" points="40.3 46.32 42.69 46.32 45.07 46.32 45.07 48.7 47.45 48.7 47.45 46.32 47.45 43.94 45.07 43.94 42.69 43.94 40.3 43.94 37.92 43.94 37.92 46.32 37.92 48.7 40.3 48.7 40.3 46.32"/><polygon class="cls-5" points="64.12 43.94 66.51 43.94 66.51 41.56 66.51 39.17 64.12 39.17 64.12 41.56 64.12 43.94"/><rect class="cls-5" x="61.74" y="43.94" width="2.38" height="2.38"/><rect class="cls-5" x="59.36" y="46.32" width="2.38" height="2.38"/><polygon class="cls-5" points="26.01 41.56 28.39 41.56 30.77 41.56 30.77 39.17 30.77 36.79 28.39 36.79 28.39 39.17 26.01 39.17 23.63 39.17 23.63 41.56 26.01 41.56"/><rect class="cls-5" x="33.16" y="36.79" width="2.38" height="2.38"/><rect class="cls-5" x="30.77" y="34.41" width="2.38" height="2.38"/><rect class="cls-5" x="52.21" y="34.41" width="2.38" height="2.38"/><rect class="cls-5" x="49.83" y="36.79" width="2.38" height="2.38"/><polygon class="cls-5" points="56.98 39.17 56.98 36.79 54.59 36.79 54.59 39.17 54.59 41.56 56.98 41.56 59.36 41.56 61.74 41.56 61.74 39.17 59.36 39.17 56.98 39.17"/><rect class="cls-5" x="61.74" y="36.79" width="2.38" height="2.38"/><rect class="cls-5" x="64.12" y="34.41" width="2.38" height="2.38"/><polygon class="cls-6" points="35.54 48.7 37.92 48.7 37.92 46.32 37.92 43.94 35.54 43.94 35.54 46.32 35.54 48.7"/><rect class="cls-6" x="47.45" y="46.32" width="2.38" height="2.38"/><rect class="cls-6" x="40.3" y="63" width="2.38" height="2.38"/><polygon class="cls-6" points="40.3 48.7 40.3 51.09 37.92 51.09 37.92 53.47 40.3 53.47 40.3 55.85 42.69 55.85 42.69 53.47 42.69 51.09 42.69 48.7 42.69 46.32 40.3 46.32 40.3 48.7"/><rect class="cls-6" x="40.3" y="58.23" width="2.38" height="2.38"/><polygon class="cls-6" points="59.36 58.23 59.36 55.85 56.98 55.85 56.98 58.23 56.98 60.61 59.36 60.61 61.74 60.61 61.74 58.23 59.36 58.23"/><rect class="cls-6" x="61.74" y="60.61" width="2.38" height="2.38"/><rect class="cls-6" x="64.12" y="58.23" width="2.38" height="2.38"/><rect class="cls-6" x="59.36" y="63" width="2.38" height="2.38"/><rect class="cls-6" x="30.77" y="39.17" width="2.38" height="2.38"/><rect class="cls-6" x="33.16" y="41.56" width="2.38" height="2.38"/><rect class="cls-6" x="47.45" y="41.56" width="2.38" height="2.38"/><rect class="cls-6" x="49.83" y="39.17" width="2.38" height="2.38"/><rect class="cls-6" x="52.21" y="36.79" width="2.38" height="2.38"/><polygon class="cls-6" points="33.16 53.47 33.16 51.09 30.77 51.09 30.77 53.47 30.77 55.85 33.16 55.85 35.54 55.85 35.54 53.47 33.16 53.47"/><polygon class="cls-6" points="35.54 55.85 35.54 58.23 37.92 58.23 40.3 58.23 40.3 55.85 37.92 55.85 35.54 55.85"/><polygon class="cls-6" points="35.54 60.61 35.54 63 35.54 65.38 37.92 65.38 37.92 63 40.3 63 40.3 60.61 37.92 60.61 35.54 60.61"/><rect class="cls-6" x="52.21" y="51.09" width="2.38" height="2.38"/><rect class="cls-2" x="52.21" y="60.61" width="2.38" height="2.38"/><polygon class="cls-7" points="45.07 51.09 45.07 53.47 47.45 53.47 49.83 53.47 49.83 51.09 47.45 51.09 45.07 51.09"/><rect class="cls-7" x="42.68" y="58.23" width="2.38" height="2.38"/><rect class="cls-7" x="42.68" y="53.47" width="2.38" height="2.38"/><rect class="cls-7" x="45.07" y="55.85" width="4.76" height="2.38"/><polygon class="cls-7" points="56.98 41.56 54.59 41.56 52.21 41.56 52.21 43.94 54.59 43.94 56.98 43.94 59.36 43.94 59.36 41.56 56.98 41.56"/><polygon class="cls-7" points="30.77 41.56 28.39 41.56 26.01 41.56 26.01 43.94 28.39 43.94 30.77 43.94 33.16 43.94 33.16 41.56 30.77 41.56"/><rect class="cls-7" x="33.16" y="43.94" width="2.38" height="2.38"/><rect class="cls-7" x="42.68" y="63" width="2.38" height="2.38"/></g></svg>