<svg xmlns="http://www.w3.org/2000/svg" viewBox="0 0 87.75 90"><defs><style>.cls-1{fill:#af1512;}.cls-2{fill:#ce1515;}.cls-3{fill:#af1010;}.cls-4{fill:#ed1914;}.cls-5{fill:#330e0e;}.cls-6{fill:#7a0808;}.cls-7{fill:#e24340;}</style></defs><title>Am_Red knight&amp;apos;s armor</title><g id="Layer_4" data-name="Layer 4"><polygon class="cls-1" points="50.1 48.56 50.1 53.33 47.71 53.33 47.71 50.95 45.33 50.95 45.33 48.56 50.1 48.56"/><rect class="cls-1" x="38.19" y="62.86" width="2.38" height="2.38"/><rect class="cls-1" x="35.8" y="55.71" width="4.76" height="2.38"/><rect class="cls-1" x="42.95" y="58.09" width="2.38" height="2.38"/><rect class="cls-1" x="42.95" y="53.33" width="2.38" height="2.38"/><rect class="cls-1" x="42.95" y="50.95" width="2.38" height="2.38"/><rect class="cls-1" x="45.33" y="62.86" width="2.38" height="2.38"/><rect class="cls-1" x="42.95" y="48.57" width="2.38" height="2.38"/><rect class="cls-1" x="42.95" y="46.18" width="2.38" height="2.38"/><rect class="cls-1" x="42.95" y="62.86" width="2.38" height="2.38"/><rect class="cls-1" x="45.33" y="60.48" width="2.38" height="2.38"/><polygon class="cls-1" points="40.57 48.56 40.57 50.95 38.19 50.95 38.19 53.33 35.8 53.33 35.8 48.56 40.57 48.56"/><rect class="cls-2" x="54.86" y="62.86" width="2.38" height="2.38"/><rect class="cls-3" x="52.48" y="62.86" width="2.38" height="2.38"/><polygon class="cls-1" points="35.8 53.33 35.8 55.71 31.04 55.71 31.04 50.95 33.42 50.95 33.42 53.33 35.8 53.33"/><rect class="cls-1" x="35.8" y="60.48" width="2.38" height="4.76"/><polygon class="cls-1" points="54.86 50.95 54.86 55.71 50.1 55.71 50.1 53.33 52.48 53.33 52.48 50.95 54.86 50.95"/><rect class="cls-1" x="47.71" y="60.48" width="2.38" height="4.76"/><polygon class="cls-1" points="35.8 43.8 35.8 48.56 26.27 48.56 26.27 46.18 23.89 46.18 23.89 43.8 21.51 43.8 21.51 39.04 23.89 39.04 23.89 41.42 33.42 41.42 33.42 43.8 35.8 43.8"/><polygon class="cls-4" points="59.62 60.48 57.24 60.48 57.24 55.71 54.86 55.71 54.86 58.09 52.48 58.09 52.48 62.86 57.24 62.86 57.24 65.24 59.62 65.24 59.62 62.86 62.01 62.86 62.01 60.48 59.62 60.48"/><rect class="cls-4" x="33.42" y="39.04" width="2.38" height="2.38"/><rect class="cls-4" x="35.8" y="41.42" width="2.38" height="2.38"/><rect class="cls-4" x="31.04" y="36.65" width="2.38" height="2.38"/><rect class="cls-4" x="47.71" y="43.8" width="2.38" height="2.38"/><rect class="cls-4" x="50.1" y="41.42" width="2.38" height="2.38"/><rect class="cls-4" x="52.48" y="39.04" width="2.38" height="2.38"/><polygon class="cls-1" points="64.39 39.04 64.39 43.8 62.01 43.8 62.01 46.18 59.62 46.18 59.62 48.56 50.1 48.56 50.1 43.8 52.48 43.8 52.48 41.42 62.01 41.42 62.01 39.04 64.39 39.04"/><rect class="cls-5" x="21.51" y="36.65" width="2.38" height="2.38"/><rect class="cls-5" x="19.13" y="34.27" width="2.38" height="2.38"/><polygon class="cls-5" points="21.51 39.04 19.13 39.04 19.13 41.42 19.13 43.8 21.51 43.8 21.51 41.42 21.51 39.04"/><rect class="cls-5" x="21.51" y="43.8" width="2.38" height="2.38"/><rect class="cls-5" x="23.89" y="46.18" width="2.38" height="2.38"/><polygon class="cls-5" points="31.04 50.95 33.42 50.95 33.42 53.33 35.8 53.33 35.8 50.95 35.8 48.56 33.42 48.56 31.04 48.56 28.66 48.56 26.27 48.56 26.27 50.95 28.66 50.95 28.66 53.33 28.66 55.71 31.04 55.71 31.04 53.33 31.04 50.95"/><polygon class="cls-5" points="54.86 48.56 52.48 48.56 50.1 48.56 50.1 50.95 50.1 53.33 52.48 53.33 52.48 50.95 54.86 50.95 54.86 53.33 54.86 55.71 57.24 55.71 57.24 53.33 57.24 50.95 59.62 50.95 59.62 48.56 57.24 48.56 54.86 48.56"/><polygon class="cls-5" points="38.19 55.71 40.57 55.71 40.57 53.33 38.19 53.33 35.8 53.33 35.8 55.71 38.19 55.71"/><polygon class="cls-5" points="42.95 58.09 45.33 58.09 45.33 55.71 42.95 55.71 40.57 55.71 40.57 58.09 42.95 58.09"/><polygon class="cls-5" points="40.57 60.48 40.57 62.86 42.95 62.86 45.33 62.86 45.33 60.48 42.95 60.48 40.57 60.48"/><polygon class="cls-5" points="50.1 55.71 50.1 53.33 47.71 53.33 45.33 53.33 45.33 55.71 47.71 55.71 50.1 55.71"/><polygon class="cls-5" points="50.1 55.71 50.1 58.09 47.71 58.09 45.33 58.09 45.33 60.48 47.71 60.48 50.1 60.48 50.1 62.86 50.1 65.24 52.48 65.24 52.48 62.86 52.48 60.48 52.48 58.09 54.86 58.09 54.86 55.71 52.48 55.71 50.1 55.71"/><polygon class="cls-5" points="40.57 46.18 42.95 46.18 45.33 46.18 45.33 48.56 47.71 48.56 47.71 46.18 47.71 43.8 45.33 43.8 42.95 43.8 40.57 43.8 38.19 43.8 38.19 46.18 38.19 48.56 40.57 48.56 40.57 46.18"/><polygon class="cls-5" points="35.8 60.48 38.19 60.48 40.57 60.48 40.57 58.09 38.19 58.09 35.8 58.09 35.8 55.71 33.42 55.71 31.04 55.71 31.04 58.09 33.42 58.09 33.42 60.48 33.42 62.86 33.42 65.24 35.8 65.24 35.8 62.86 35.8 60.48"/><polygon class="cls-5" points="45.33 65.24 42.95 65.24 40.57 65.24 38.19 65.24 35.8 65.24 35.8 67.62 38.19 67.62 40.57 67.62 42.95 67.62 45.33 67.62 47.71 67.62 50.1 67.62 50.1 65.24 47.71 65.24 45.33 65.24"/><polygon class="cls-5" points="64.39 43.8 66.77 43.8 66.77 41.42 66.77 39.04 64.39 39.04 64.39 41.42 64.39 43.8"/><rect class="cls-5" x="62.01" y="43.8" width="2.38" height="2.38"/><rect class="cls-5" x="59.62" y="46.18" width="2.38" height="2.38"/><polygon class="cls-5" points="26.27 41.42 28.66 41.42 31.04 41.42 31.04 39.04 31.04 36.66 28.66 36.66 28.66 39.04 26.27 39.04 23.89 39.04 23.89 41.42 26.27 41.42"/><rect class="cls-5" x="33.42" y="36.65" width="2.38" height="2.38"/><rect class="cls-5" x="31.04" y="34.27" width="2.38" height="2.38"/><rect class="cls-5" x="52.48" y="34.27" width="2.38" height="2.38"/><rect class="cls-5" x="50.1" y="36.65" width="2.38" height="2.38"/><polygon class="cls-5" points="57.24 39.04 57.24 36.66 54.86 36.66 54.86 39.04 54.86 41.42 57.24 41.42 59.62 41.42 62.01 41.42 62.01 39.04 59.62 39.04 57.24 39.04"/><rect class="cls-5" x="62.01" y="36.65" width="2.38" height="2.38"/><rect class="cls-5" x="64.39" y="34.27" width="2.38" height="2.38"/><polygon class="cls-6" points="35.8 48.56 38.19 48.56 38.19 46.18 38.19 43.8 35.8 43.8 35.8 46.18 35.8 48.56"/><rect class="cls-6" x="47.71" y="46.18" width="2.38" height="2.38"/><polygon class="cls-6" points="40.57 48.56 40.57 50.95 38.19 50.95 38.19 53.33 40.57 53.33 40.57 55.71 42.95 55.71 42.95 53.33 42.95 50.95 42.95 48.56 42.95 46.18 40.57 46.18 40.57 48.56"/><rect class="cls-6" x="40.57" y="58.09" width="2.38" height="2.38"/><polygon class="cls-6" points="59.62 58.09 59.62 55.71 57.24 55.71 57.24 58.09 57.24 60.48 59.62 60.48 62.01 60.48 62.01 58.09 59.62 58.09"/><rect class="cls-6" x="62.01" y="60.48" width="2.38" height="2.38"/><rect class="cls-6" x="64.39" y="58.09" width="2.38" height="2.38"/><rect class="cls-6" x="59.62" y="62.86" width="2.38" height="2.38"/><rect class="cls-6" x="31.04" y="39.04" width="2.38" height="2.38"/><rect class="cls-6" x="33.42" y="41.42" width="2.38" height="2.38"/><rect class="cls-6" x="47.71" y="41.42" width="2.38" height="2.38"/><rect class="cls-6" x="50.1" y="39.04" width="2.38" height="2.38"/><rect class="cls-6" x="52.48" y="36.65" width="2.38" height="2.38"/><polygon class="cls-6" points="33.42 53.33 33.42 50.95 31.04 50.95 31.04 53.33 31.04 55.71 33.42 55.71 35.8 55.71 35.8 53.33 33.42 53.33"/><polygon class="cls-6" points="35.8 55.71 35.8 58.09 38.19 58.09 40.57 58.09 40.57 55.71 38.19 55.71 35.8 55.71"/><polygon class="cls-6" points="35.8 60.48 35.8 62.86 35.8 65.24 38.19 65.24 40.57 65.24 42.95 65.24 42.95 62.86 40.57 62.86 40.57 60.48 38.19 60.48 35.8 60.48"/><rect class="cls-6" x="52.48" y="50.95" width="2.38" height="2.38"/><rect class="cls-2" x="52.48" y="60.48" width="2.38" height="2.38"/><polygon class="cls-7" points="45.33 50.95 45.33 53.33 47.71 53.33 50.1 53.33 50.1 50.95 47.71 50.95 45.33 50.95"/><rect class="cls-7" x="42.95" y="58.09" width="2.38" height="2.38"/><rect class="cls-7" x="42.95" y="53.33" width="2.38" height="2.38"/><rect class="cls-7" x="45.33" y="55.71" width="4.76" height="2.38"/><polygon class="cls-7" points="57.24 41.42 54.86 41.42 52.48 41.42 52.48 43.8 54.86 43.8 57.24 43.8 59.62 43.8 59.62 41.42 57.24 41.42"/><polygon class="cls-7" points="31.04 41.42 28.66 41.42 26.27 41.42 26.27 43.8 28.66 43.8 31.04 43.8 33.42 43.8 33.42 41.42 31.04 41.42"/><rect class="cls-7" x="33.42" y="43.8" width="2.38" height="2.38"/><rect class="cls-7" x="42.95" y="62.86" width="2.38" height="2.38"/></g></svg>