<svg xmlns="http://www.w3.org/2000/svg" viewBox="0 0 91.91 90"><defs><style>.cls-1{fill:#a4775f;}.cls-2{fill:#3b424d;}.cls-3{fill:#2e343d;}.cls-4{fill:#21252b;}.cls-5{fill:#ba9b7b;}.cls-6{fill:#191919;}.cls-7{fill:#fee4ac;}.cls-8{fill:#434c59;}.cls-9{fill:#fee1ab;}.cls-10{fill:#171a1e;}.cls-11{fill:#966356;}</style></defs><title>We_Igris long sword</title><g id="Layer_4" data-name="Layer 4"><polygon class="cls-1" points="33.51 45.12 31.28 45.12 31.28 42.88 29.04 42.88 29.04 40.65 26.81 40.65 24.57 40.65 24.57 42.88 22.34 42.88 22.34 45.12 22.34 47.35 24.57 47.35 24.57 49.59 24.57 51.82 26.81 51.82 29.04 51.82 29.04 49.59 26.81 49.59 26.81 47.35 29.04 47.35 31.28 47.35 31.28 49.59 31.28 51.82 33.51 51.82 33.51 49.59 35.74 49.59 35.74 47.35 33.51 47.35 33.51 45.12"/><rect class="cls-1" x="20.11" y="40.65" width="2.23" height="2.23"/><polygon class="cls-1" points="24.57 38.42 26.81 38.42 29.04 38.42 29.04 36.18 26.81 36.18 24.57 36.18 24.57 38.42"/><rect class="cls-1" x="17.87" y="33.95" width="2.23" height="2.23"/><polygon class="cls-1" points="15.64 31.71 13.4 31.71 13.4 33.95 15.64 33.95 17.87 33.95 17.87 31.71 15.64 31.71"/><polygon class="cls-1" points="13.4 29.43 13.4 27.25 13.4 27.19 13.4 25.01 11.17 25.01 11.17 25.01 8.94 25.01 8.94 27.19 8.94 27.24 8.94 27.25 6.7 27.25 6.7 29.48 8.94 29.48 8.94 29.42 11.17 29.42 11.17 29.43 13.4 29.43"/><rect class="cls-1" x="15.64" y="27.25" width="2.23" height="2.23"/><rect class="cls-1" x="22.34" y="31.71" width="2.23" height="2.23"/><rect class="cls-1" x="2.23" y="16.08" width="2.23" height="2.23"/><rect class="cls-1" x="15.64" y="36.18" width="2.23" height="2.23"/><rect class="cls-1" x="29.04" y="51.82" width="2.23" height="2.23"/><rect class="cls-1" x="35.74" y="45.12" width="2.23" height="2.23"/><rect class="cls-2" x="40.21" y="56.29" width="2.23" height="2.23"/><rect class="cls-3" x="37.98" y="54.05" width="2.23" height="2.23"/><rect class="cls-4" x="35.74" y="51.82" width="2.23" height="2.23"/><rect class="cls-5" x="33.51" y="49.59" width="2.23" height="2.23"/><rect class="cls-6" x="33.51" y="51.82" width="2.23" height="2.23"/><rect class="cls-6" x="35.74" y="54.05" width="2.23" height="2.23"/><rect class="cls-6" x="37.98" y="56.29" width="2.23" height="2.23"/><rect class="cls-6" x="40.21" y="58.52" width="2.23" height="2.23"/><rect class="cls-6" x="42.45" y="60.76" width="2.23" height="2.23"/><rect class="cls-6" x="44.68" y="58.52" width="2.23" height="2.23"/><rect class="cls-6" x="42.45" y="56.29" width="2.23" height="2.23"/><rect class="cls-6" x="40.21" y="54.05" width="2.23" height="2.23"/><rect class="cls-6" x="37.98" y="51.82" width="2.23" height="2.23"/><rect class="cls-6" x="35.74" y="49.59" width="2.23" height="2.23"/><rect class="cls-5" x="17.87" y="38.42" width="2.23" height="2.23"/><rect class="cls-5" x="13.4" y="25.01" width="2.23" height="2.23"/><rect class="cls-7" x="11.17" y="22.78" width="2.23" height="2.23"/><rect class="cls-5" x="17.87" y="29.48" width="2.23" height="2.23"/><rect class="cls-7" x="20.11" y="31.71" width="2.23" height="2.23"/><rect class="cls-5" x="22.34" y="33.95" width="2.23" height="2.23"/><rect class="cls-5" x="26.81" y="38.42" width="2.23" height="2.23"/><rect class="cls-7" x="29.04" y="40.65" width="2.23" height="2.23"/><rect class="cls-7" x="11.17" y="31.71" width="2.23" height="2.23"/><rect class="cls-5" x="8.94" y="29.48" width="2.23" height="2.23"/><rect class="cls-5" x="6.7" y="25.01" width="2.23" height="2.23"/><rect class="cls-7" y="18.31" width="2.23" height="2.23"/><rect class="cls-7" x="4.47" y="22.78" width="2.23" height="2.23"/><rect class="cls-5" x="6.7" y="20.54" width="2.23" height="2.23"/><rect class="cls-5" x="24.57" y="33.95" width="2.23" height="2.23"/><rect class="cls-5" x="4.47" y="18.31" width="2.23" height="2.23"/><rect class="cls-5" x="2.23" y="20.54" width="2.23" height="2.23"/><rect class="cls-5" y="16.08" width="2.23" height="2.23"/><rect class="cls-5" x="13.4" y="33.95" width="2.23" height="2.23"/><rect class="cls-7" x="17.87" y="40.65" width="2.23" height="2.23"/><rect class="cls-5" x="15.64" y="38.42" width="2.23" height="2.23"/><rect class="cls-7" x="20.11" y="40.65" width="2.23" height="2.23"/><rect class="cls-5" x="22.34" y="42.88" width="2.23" height="2.23"/><rect class="cls-5" x="20.11" y="42.88" width="2.23" height="2.23"/><rect class="cls-7" x="29.04" y="45.12" width="2.23" height="2.23"/><rect class="cls-7" x="8.94" y="22.78" width="2.23" height="2.23"/><rect class="cls-8" x="42.45" y="58.52" width="2.23" height="2.23"/><rect class="cls-9" x="44.68" y="60.76" width="2.23" height="2.23"/><rect class="cls-5" x="35.74" y="42.88" width="2.23" height="2.23"/><rect class="cls-5" x="37.98" y="42.88" width="2.23" height="2.23"/><rect class="cls-7" x="31.28" y="40.65" width="2.23" height="2.23"/><rect class="cls-5" x="33.51" y="40.65" width="2.23" height="2.23"/><rect class="cls-5" x="29.04" y="38.42" width="2.23" height="2.23"/><rect class="cls-5" x="33.51" y="42.88" width="2.23" height="2.23"/><rect class="cls-10" x="22.34" y="36.18" width="2.23" height="2.23"/><rect class="cls-10" x="20.11" y="33.95" width="2.23" height="2.23"/><polygon class="cls-10" points="17.87 31.71 17.87 29.48 15.64 29.48 15.64 31.71 13.4 31.71 13.4 33.95 15.64 33.95 17.87 33.95 20.11 33.95 20.11 31.71 17.87 31.71"/><rect class="cls-10" x="6.7" y="22.78" width="2.23" height="2.23"/><rect class="cls-10" x="4.47" y="20.54" width="2.23" height="2.23"/><rect class="cls-10" x="2.23" y="18.31" width="2.23" height="2.23"/><polygon class="cls-10" points="26.81 40.65 26.81 38.42 24.57 38.42 24.57 40.65 22.34 40.65 22.34 42.88 24.57 42.88 26.81 42.88 29.04 42.88 29.04 40.65 26.81 40.65"/><rect class="cls-10" x="11.17" y="25.01" width="2.23" height="2.23"/><rect class="cls-10" x="13.4" y="27.25" width="2.23" height="2.23"/><polygon class="cls-10" points="33.51 45.12 33.51 42.88 31.28 42.88 29.04 42.88 29.04 45.12 31.28 45.12 31.28 47.35 33.51 47.35 35.74 47.35 35.74 45.12 33.51 45.12"/><polygon points="24.57 38.42 22.34 38.42 22.34 36.18 20.11 36.18 20.11 33.95 17.87 33.95 15.64 33.95 15.64 36.18 17.87 36.18 17.87 38.42 20.11 38.42 20.11 40.65 22.34 40.65 24.57 40.65 24.57 38.42"/><polygon points="15.64 29.48 13.4 29.48 13.4 27.25 11.17 27.25 11.17 27.24 11.17 25.01 8.94 25.01 8.94 27.24 8.94 29.47 11.17 29.47 11.17 29.48 11.17 31.71 13.4 31.71 15.64 31.71 15.64 29.48"/><polygon points="29.04 47.35 29.04 45.12 29.04 42.88 26.81 42.88 24.57 42.88 24.57 45.12 26.81 45.12 26.81 47.35 26.81 49.59 29.04 49.59 29.04 51.82 31.28 51.82 31.28 49.59 31.28 47.35 29.04 47.35"/><rect class="cls-5" x="31.28" y="47.35" width="2.23" height="2.23"/><polygon class="cls-11" points="26.81 51.82 26.81 54.05 26.81 56.29 29.04 56.29 29.04 54.05 29.04 51.82 26.81 51.82"/><rect class="cls-11" x="24.57" y="49.59" width="2.23" height="2.23"/></g></svg>