<svg xmlns="http://www.w3.org/2000/svg" viewBox="0 0 87.75 90"><defs><style>.cls-1{fill:#ce1515;}.cls-2{fill:#ed1914;}.cls-3{fill:#e24340;}.cls-4{fill:#7a0808;}.cls-5{fill:#af1512;}.cls-6{fill:#330e0e;}</style></defs><title>Am_Red knight&amp;apos;s helmet</title><g id="Layer_3" data-name="Layer 3"><rect class="cls-1" x="49.74" y="4.5" width="2.38" height="2.38"/><rect class="cls-1" x="52.12" y="6.89" width="2.38" height="2.38"/><rect class="cls-2" x="42.59" y="4.5" width="2.38" height="2.38"/><polygon class="cls-2" points="49.74 2.12 47.36 2.12 44.98 2.12 44.98 4.5 47.36 4.5 49.74 4.5 52.12 4.5 52.12 2.12 49.74 2.12"/><rect class="cls-2" x="52.12" y="4.5" width="2.38" height="2.38"/><rect class="cls-2" x="54.5" y="6.89" width="2.38" height="2.38"/><rect class="cls-2" x="56.89" y="9.27" width="2.38" height="2.38"/><rect class="cls-2" x="59.27" y="11.65" width="2.38" height="2.38"/><rect class="cls-2" x="61.65" y="9.27" width="2.38" height="2.38"/><polygon class="cls-3" points="44.98 14.03 44.98 11.65 44.98 9.27 42.59 9.27 42.59 11.65 42.59 14.03 42.59 16.41 42.59 18.8 42.59 21.18 42.59 23.56 42.59 25.94 42.59 28.32 44.98 28.32 44.98 25.94 44.98 23.56 44.98 21.18 47.36 21.18 47.36 18.8 47.36 16.41 47.36 14.03 44.98 14.03"/><rect class="cls-4" x="37.83" y="40.24" width="2.38" height="2.38"/><polygon class="cls-4" points="35.45 37.85 37.83 37.85 37.83 35.47 37.83 33.09 35.45 33.09 35.45 35.47 35.45 37.85"/><rect class="cls-4" x="33.07" y="30.71" width="2.38" height="2.38"/><rect class="cls-4" x="30.68" y="28.33" width="2.38" height="2.38"/><rect class="cls-4" x="40.21" y="28.33" width="2.38" height="2.38"/><rect class="cls-4" x="37.83" y="25.94" width="2.38" height="2.38"/><rect class="cls-4" x="47.36" y="4.5" width="2.38" height="2.38"/><rect class="cls-4" x="49.74" y="6.89" width="2.38" height="2.38"/><rect class="cls-4" x="52.12" y="9.27" width="2.38" height="2.38"/><rect class="cls-4" x="54.5" y="11.65" width="2.38" height="2.38"/><rect class="cls-4" x="28.3" y="21.18" width="2.38" height="2.38"/><polygon class="cls-4" points="37.83 21.18 35.45 21.18 35.45 18.8 33.07 18.8 33.07 21.18 33.07 23.56 35.45 23.56 35.45 25.94 37.83 25.94 37.83 23.56 37.83 21.18"/><rect class="cls-4" x="54.5" y="21.18" width="2.38" height="2.38"/><rect class="cls-5" x="35.45" y="37.85" width="2.38" height="2.38"/><rect class="cls-5" x="33.07" y="33.09" width="2.38" height="2.38"/><polygon class="cls-5" points="52.12 30.71 49.74 30.71 49.74 33.09 47.36 33.09 47.36 35.47 47.36 37.85 47.36 40.24 49.74 40.24 49.74 37.85 49.74 35.47 52.12 35.47 52.12 33.09 54.5 33.09 54.5 30.71 54.5 28.32 52.12 28.32 52.12 30.71"/><polygon class="cls-5" points="54.5 28.32 56.89 28.32 56.89 25.94 56.89 23.56 54.5 23.56 54.5 25.94 54.5 28.32"/><rect class="cls-5" x="42.59" y="28.33" width="2.38" height="2.38"/><polygon class="cls-5" points="42.59 23.56 42.59 21.18 42.59 18.8 42.59 16.41 42.59 14.03 42.59 11.65 42.59 9.27 40.21 9.27 40.21 11.65 37.83 11.65 37.83 14.03 35.45 14.03 35.45 16.41 33.07 16.41 33.07 18.8 35.45 18.8 35.45 21.18 37.83 21.18 37.83 23.56 37.83 25.94 40.21 25.94 40.21 28.32 42.59 28.32 42.59 25.94 42.59 23.56"/><rect class="cls-5" x="30.68" y="30.71" width="2.38" height="2.38"/><polygon class="cls-5" points="28.3 25.94 28.3 28.32 30.68 28.32 30.68 25.94 30.68 23.56 28.3 23.56 28.3 25.94"/><rect class="cls-5" x="44.98" y="11.65" width="2.38" height="2.38"/><polygon class="cls-5" points="30.68 16.41 28.3 16.41 25.92 16.41 25.92 18.8 28.3 18.8 28.3 21.18 30.68 21.18 30.68 23.56 33.07 23.56 33.07 21.18 33.07 18.8 30.68 18.8 30.68 16.41"/><polygon class="cls-5" points="56.89 16.41 54.5 16.41 54.5 18.8 52.12 18.8 52.12 16.41 49.74 16.41 49.74 14.03 47.36 14.03 47.36 16.41 47.36 18.8 47.36 21.18 44.98 21.18 44.98 23.56 44.98 25.94 44.98 28.32 47.36 28.32 47.36 25.94 49.74 25.94 49.74 23.56 52.12 23.56 54.5 23.56 54.5 21.18 56.89 21.18 56.89 18.8 59.27 18.8 59.27 16.41 56.89 16.41"/><rect class="cls-5" x="44.98" y="40.24" width="2.38" height="2.38"/><rect class="cls-6" x="37.83" y="42.62" width="2.38" height="2.38"/><rect class="cls-6" x="35.45" y="40.24" width="2.38" height="2.38"/><polygon class="cls-6" points="33.07 40.24 35.45 40.24 35.45 37.85 35.45 35.47 33.07 35.47 33.07 37.85 33.07 40.24"/><rect class="cls-6" x="35.45" y="25.94" width="2.38" height="2.38"/><rect class="cls-6" x="37.83" y="28.33" width="2.38" height="2.38"/><polygon class="cls-6" points="40.21 30.71 40.21 33.09 42.59 33.09 44.98 33.09 44.98 30.71 42.59 30.71 40.21 30.71"/><rect class="cls-6" x="44.98" y="28.33" width="2.38" height="2.38"/><rect class="cls-6" x="47.36" y="25.94" width="2.38" height="2.38"/><polygon class="cls-6" points="54.5 23.56 52.12 23.56 49.74 23.56 49.74 25.94 52.12 25.94 52.12 28.32 54.5 28.32 54.5 25.94 54.5 23.56"/><rect class="cls-6" x="52.12" y="33.09" width="2.38" height="2.38"/><polygon class="cls-6" points="54.5 30.71 54.5 33.09 56.89 33.09 56.89 30.71 56.89 28.32 54.5 28.32 54.5 30.71"/><polygon class="cls-6" points="56.89 25.94 56.89 28.32 59.27 28.32 59.27 25.94 59.27 23.56 56.89 23.56 56.89 25.94"/><polygon class="cls-6" points="33.07 23.56 30.68 23.56 30.68 25.94 30.68 28.32 33.07 28.32 33.07 25.94 35.45 25.94 35.45 23.56 33.07 23.56"/><rect class="cls-6" x="30.68" y="33.09" width="2.38" height="2.38"/><polygon class="cls-6" points="28.3 30.71 28.3 33.09 30.68 33.09 30.68 30.71 30.68 28.32 28.3 28.32 28.3 30.71"/><polygon class="cls-6" points="28.3 23.56 25.92 23.56 25.92 25.94 25.92 28.32 28.3 28.32 28.3 25.94 28.3 23.56"/><rect class="cls-6" x="25.92" y="18.8" width="2.38" height="2.38"/><rect class="cls-6" x="23.54" y="21.18" width="2.38" height="2.38"/><rect class="cls-6" x="23.54" y="16.41" width="2.38" height="2.38"/><polygon class="cls-6" points="30.68 16.41 30.68 14.03 28.3 14.03 28.3 11.65 25.92 11.65 25.92 14.03 25.92 16.41 28.3 16.41 30.68 16.41"/><rect class="cls-6" x="33.07" y="14.03" width="2.38" height="2.38"/><rect class="cls-6" x="35.45" y="11.65" width="2.38" height="2.38"/><rect class="cls-6" x="37.83" y="9.27" width="2.38" height="2.38"/><polygon class="cls-6" points="44.98 9.27 44.98 6.89 42.59 6.89 40.21 6.89 40.21 9.27 42.59 9.27 44.98 9.27"/><rect class="cls-6" x="44.98" y="9.27" width="2.38" height="2.38"/><rect class="cls-6" x="47.36" y="11.65" width="2.38" height="2.38"/><rect class="cls-6" x="49.74" y="14.03" width="2.38" height="2.38"/><rect class="cls-6" x="30.68" y="16.41" width="2.38" height="2.38"/><rect class="cls-6" x="52.12" y="16.41" width="2.38" height="2.38"/><rect class="cls-6" x="28.3" y="9.27" width="2.38" height="2.38"/><rect class="cls-6" x="56.89" y="18.8" width="2.38" height="2.38"/><rect class="cls-6" x="59.27" y="21.18" width="2.38" height="2.38"/><rect class="cls-6" x="59.27" y="16.41" width="2.38" height="2.38"/><polygon class="cls-6" points="59.27 16.41 59.27 14.03 59.27 11.65 56.89 11.65 56.89 14.03 54.5 14.03 54.5 16.41 56.89 16.41 59.27 16.41"/><rect class="cls-6" x="54.5" y="9.27" width="2.38" height="2.38"/><polygon class="cls-6" points="49.74 37.85 49.74 40.24 52.12 40.24 52.12 37.85 52.12 35.47 49.74 35.47 49.74 37.85"/><rect class="cls-6" x="47.36" y="40.24" width="2.38" height="2.38"/><rect class="cls-6" x="44.98" y="42.62" width="2.38" height="2.38"/></g></svg>